<svg width="300" height="300" viewBox="0 0 300 300" fill="none" xmlns="http://www.w3.org/2000/svg">
<g clip-path="url(#clip0_992_23785)">
<rect width="300" height="300" rx="40" fill="#C4BD6C"/>
<path d="M189.109 245.672C187.617 240.431 187.042 234.864 186.875 230.297C176.874 241.201 165.482 248.633 150.001 248.633C128.519 248.633 117.665 234.16 113.127 230.297C112.945 235.28 112.303 240.718 110.888 245.687C110.534 246.931 109.684 247.978 108.537 248.629C108.808 255.006 109.992 263.521 113.416 273.316C133.304 290.809 166.46 291.036 186.429 273.764C189.975 263.782 191.189 255.105 191.465 248.631C190.313 247.977 189.464 246.921 189.109 245.672Z" fill="#F98F8F"/>
<path d="M143.415 267.873C143.415 259.283 148.457 251.814 155.726 248.277C153.88 248.51 151.974 248.633 150.001 248.633C128.519 248.633 117.665 234.16 113.127 230.297C112.945 235.28 112.303 240.718 110.888 245.687C110.534 246.931 109.684 247.978 108.537 248.629C108.808 255.006 109.992 263.521 113.416 273.316C121.738 280.636 132.385 284.921 143.415 286.177V267.873Z" fill="#F77C7C"/>
<path d="M100.722 254.129C103.979 270.526 114.985 306.955 150.001 324.013C150.001 324.013 188.951 305.437 199.292 254.496C182.606 295.877 117.374 295.468 100.722 254.129Z" fill="#858435"/>
<path d="M165.393 307.536C156.402 312.127 150.113 303.059 144.76 296.007C139.408 288.955 143.414 284.943 143.414 284.943L143.41 284.936C125.261 282.867 108.153 272.578 100.721 254.129C103.978 270.526 114.984 306.955 150 324.013C150 324.013 159.14 319.654 169.74 309.368C168.842 307.373 167.462 306.48 165.393 307.536Z" fill="#6A6A34"/>
<path d="M188.675 284.228C193.154 275.862 196.955 266.008 199.293 254.496C182.606 295.877 117.374 295.468 100.722 254.129C102.109 261.108 104.908 271.718 110.356 282.917C130.448 304.014 168.023 304.549 188.675 284.228Z" fill="#A09D35"/>
<path d="M144.761 296.007C139.409 288.955 143.415 284.943 143.415 284.943L143.411 284.936C125.262 282.867 108.154 272.578 100.722 254.129C102.109 261.108 104.908 271.718 110.356 282.917C119.88 292.918 133.333 298.29 147.05 299.018C146.266 298.004 145.504 296.986 144.761 296.007Z" fill="#858435"/>
<path d="M148.464 324.339C138.138 323.691 112.33 320.559 95.7309 305.484C94.8323 304.667 94.6637 303.241 95.3387 302.166L102.49 290.771C103.393 289.333 103.513 287.548 102.812 285.997C102.16 284.555 100.904 283.528 99.3658 283.178L88.9027 280.794C88.0912 280.609 87.4278 279.97 87.1709 279.125C86.4626 276.794 85.348 271.826 85.7272 264.48V263.574H85.6348C84.3175 264.023 83.0166 264.481 81.7538 264.953C64.366 271.386 57.9749 276.389 52.1874 278.607C50.5371 279.24 48.8474 279.664 47.0408 279.803C37.6964 280.518 29.8943 282.8 23.3835 286.181C15.7894 290.125 9.73406 295.679 5.00684 302.413C32.2677 350.549 82.7971 383.771 141.318 386.776C141.397 386.78 141.477 386.785 141.555 386.789C142.825 386.852 144.099 386.899 145.377 386.934C145.837 386.946 146.299 386.952 146.76 386.96C147.517 386.974 148.275 386.984 149.035 386.988C149.646 386.992 150.258 386.993 150.87 386.99C151.026 386.989 151.182 386.985 151.338 386.984V324.013H149.261L148.464 324.339Z" fill="#6A6A34"/>
<path d="M97.5493 296.171H99.1017L102.491 290.771C103.394 289.333 103.514 287.548 102.813 285.997C102.161 284.555 100.905 283.528 99.3668 283.178L88.9037 280.794C88.0921 280.609 87.4288 279.97 87.1718 279.125C86.4636 276.794 85.3489 271.826 85.7282 264.48V263.574H85.6357C84.3185 264.023 83.0176 264.481 81.7547 264.953C64.367 271.386 57.9759 276.389 52.1883 278.607C50.538 279.24 48.8483 279.664 47.0417 279.803C37.6974 280.518 29.8952 282.8 23.3845 286.181C15.7904 290.125 9.73504 295.679 5.00781 302.413C11.8332 314.464 20.1173 325.581 29.62 335.523C42.742 284.396 97.5493 296.171 97.5493 296.171Z" fill="#605E2C"/>
<path d="M294.993 302.412C286.697 290.596 273.587 281.381 252.959 279.802C244.812 279.179 240.685 273.255 218.246 264.953C216.984 264.481 215.682 264.024 214.365 263.574H214.274V264.48C214.653 271.826 213.539 276.795 212.83 279.125C212.573 279.97 211.91 280.609 211.098 280.794L200.635 283.178C199.097 283.528 197.841 284.555 197.189 285.997C196.489 287.547 196.609 289.332 197.512 290.771L204.663 302.166C205.337 303.241 205.169 304.667 204.27 305.484C187.671 320.559 161.863 323.691 151.537 324.339L150 324.012V386.999C151.336 386.999 152.667 386.98 153.996 386.949C154.178 386.945 154.36 386.941 154.543 386.936C214.814 385.321 267.092 351.679 294.993 302.412Z" fill="#858435"/>
<path d="M219.698 154.439C216.743 151.965 210.859 153.219 208.314 154.734C208.871 157.906 208.903 161.153 208.421 164.357L205.418 184.344C205.418 185.955 205.363 187.536 205.261 189.089C212.583 191.108 216.22 185.1 216.832 180.978C217.096 179.203 217.528 177.454 218.125 175.747C220.074 170.187 227.1 160.639 219.698 154.439Z" fill="#FE9D9A"/>
<path d="M214.136 173.519C211.524 173.519 209.16 172.539 207.429 170.955L205.417 184.344C205.417 185.955 205.362 187.535 205.26 189.088C212.582 191.107 216.219 185.1 216.831 180.977C217.095 179.202 217.527 177.453 218.125 175.746C218.54 174.564 219.184 173.2 219.87 171.727C218.269 172.847 216.289 173.519 214.136 173.519Z" fill="#F98F8F"/>
<path d="M80.305 154.439C83.2603 151.965 89.1464 153.219 91.6911 154.734C91.1338 157.906 91.1018 161.153 91.5837 164.357L94.5873 184.344C94.5873 185.955 94.643 187.536 94.745 189.089C87.422 191.108 83.7843 185.1 83.1713 180.978C82.9075 179.203 82.4759 177.454 81.8778 175.747C79.9285 170.187 72.9012 160.639 80.305 154.439Z" fill="#FE9D9A"/>
<path d="M92.5853 171.029C90.8623 172.569 88.5337 173.52 85.9631 173.52C83.7453 173.52 81.7096 172.809 80.0845 171.627C80.7886 173.139 81.4534 174.539 81.8768 175.748C82.4749 177.454 82.9059 179.204 83.1703 180.979C83.7833 185.102 87.421 191.109 94.744 189.09C94.642 187.537 94.5863 185.957 94.5863 184.345L92.5853 171.029Z" fill="#F98F8F"/>
<path d="M206.366 143.778C205.514 142.527 204.897 141.165 204.506 139.748H95.5038C95.1103 141.165 94.4877 142.527 93.6353 143.779C92.6199 145.27 91.8083 146.848 91.1585 148.41C89.0515 153.477 90.4442 158.973 91.234 164.354L94.1662 184.345C94.1662 213.086 110.555 232.621 124.496 242.754C131.773 248.044 140.753 250.917 150.001 250.917C159.25 250.917 168.23 248.043 175.506 242.754C189.447 232.621 205.836 213.086 205.836 184.345L208.768 164.359C209.549 159.03 210.964 153.589 208.906 148.561C208.246 146.949 207.414 145.317 206.366 143.778Z" fill="#FFBAAE"/>
<path d="M147.643 242.754C137.517 232.621 125.611 213.086 125.611 184.345L123.481 164.354C122.908 158.973 123.354 153.477 124.885 148.41C125.356 146.848 125.946 145.27 126.684 143.779C127.303 142.527 127.755 141.165 128.041 139.748H95.5038C95.1103 141.165 94.4877 142.527 93.6353 143.779C92.6199 145.269 91.8083 146.848 91.1585 148.41C89.0515 153.477 90.4442 158.973 91.234 164.354L94.1662 184.345C94.1662 213.086 110.555 232.621 124.496 242.754C131.773 248.044 140.753 250.917 150.001 250.917C153.175 250.917 156.315 250.57 159.367 249.912C155.122 248.653 151.114 246.229 147.643 242.754Z" fill="#FE9D9A"/>
<path d="M223.862 119.267C223.862 74.9364 189.801 39 147.784 39C105.767 39 71.7056 74.9364 71.7056 119.267V123.297H223.863V119.267H223.862Z" fill="#858435"/>
<path d="M166.886 41.5522C160.783 39.887 154.381 39 147.784 39C105.767 39 71.7056 74.9364 71.7056 119.267V123.297H128.006C128.808 89.424 144.003 59.6394 166.886 41.5522Z" fill="#6A6A34"/>
<path d="M79.6035 83.6261H124.747C127.672 83.6261 130.045 81.1228 130.045 78.0364C130.045 74.9309 127.647 72.446 124.746 72.446H114.741C111.815 72.446 109.442 69.9427 109.442 66.8562C109.442 63.7677 111.817 61.2664 114.741 61.2664H147.784C150.709 61.2664 153.082 58.7632 153.082 55.6767C153.082 52.5712 150.684 50.087 147.784 50.087H135.863C132.937 50.087 130.564 47.5837 130.564 44.4972C130.564 43.059 131.086 41.7438 131.941 40.748C108.943 45.8878 89.7846 61.9883 79.6035 83.6261Z" fill="#605E2C"/>
<path d="M205.662 67.1758H171.16C168.235 67.1758 165.862 69.6791 165.862 72.7655C165.862 75.871 168.26 78.356 171.16 78.356H194.049C196.974 78.356 199.347 80.8592 199.347 83.9457C199.347 87.0091 197 89.5355 194.049 89.5355H185.279C182.354 89.5355 179.981 92.0387 179.981 95.1252C179.981 98.2124 182.357 100.72 185.28 100.72H221.818C218.995 88.1333 213.364 76.6934 205.662 67.1758Z" fill="#A09D35"/>
<path d="M164.211 93.1729H154.401C152.341 93.1729 150.67 91.4105 150.67 89.2369C150.67 87.0632 152.34 85.3008 154.401 85.3008H164.211C166.271 85.3008 167.941 87.0632 167.941 89.2369C167.941 91.4105 166.271 93.1729 164.211 93.1729Z" fill="#6A6A34"/>
<path d="M109.671 102.138H99.8607C97.8006 102.138 96.1299 100.375 96.1299 98.2017C96.1299 96.0281 97.8006 94.2656 99.8607 94.2656H109.671C111.731 94.2656 113.401 96.0281 113.401 98.2017C113.401 100.375 111.731 102.138 109.671 102.138Z" fill="#AFAA41"/>
<path d="M148.713 77.5225H146.956C144.896 77.5225 143.226 75.7601 143.226 73.5865C143.226 71.4128 144.896 69.6504 146.956 69.6504H148.713C150.774 69.6504 152.444 71.4128 152.444 73.5865C152.444 75.7601 150.774 77.5225 148.713 77.5225Z" fill="#AFAA41"/>
<path d="M121.641 116.529H136.038C138.964 116.529 141.336 114.027 141.336 110.939C141.336 107.852 138.964 105.35 136.038 105.35H121.818C118.883 105.35 116.372 107.787 116.343 110.883C116.314 114.014 118.723 116.529 121.641 116.529Z" fill="#AFAA41"/>
<path d="M129.823 105.35H121.818C118.883 105.35 116.372 107.787 116.343 110.883C116.314 114.014 118.723 116.529 121.641 116.529H128.365C128.673 112.74 129.163 109.01 129.823 105.35Z" fill="#A09D35"/>
<path d="M149.473 322.833C116.161 293.052 110.282 263.222 109.837 247.586L109.837 247.587C109.837 247.587 95.0073 252.639 84.4157 263.98C83.9685 271.571 85.0709 276.793 85.8845 279.47C86.276 280.758 87.3091 281.723 88.5869 282.013L99.05 284.397C101.546 284.965 102.725 287.927 101.337 290.138L94.1855 301.533C93.2102 303.087 93.4528 305.162 94.8 306.385C111.742 321.771 137.98 324.939 148.375 325.591C149.83 325.681 150.574 323.818 149.473 322.833Z" fill="#AFAA41"/>
<path d="M150.53 322.833C183.841 293.052 189.72 263.222 190.165 247.586L190.166 247.587C190.166 247.587 204.995 252.639 215.587 263.98C216.034 271.571 214.931 276.793 214.118 279.47C213.726 280.758 212.693 281.723 211.415 282.013L200.952 284.397C198.456 284.965 197.278 287.927 198.666 290.138L205.817 301.533C206.792 303.087 206.549 305.162 205.202 306.385C188.26 321.771 162.022 324.939 151.627 325.591C150.171 325.681 149.428 323.818 150.53 322.833Z" fill="#AFAA41"/>
<path d="M89.4132 133.996C85.6015 133.996 82.4824 137.115 82.4824 140.927V186.855C82.4824 190.666 85.6015 193.785 89.4132 193.785C93.2249 193.785 96.344 190.666 96.344 186.855V140.927C96.344 137.115 93.2256 133.996 89.4132 133.996Z" fill="#4A4A61"/>
<path d="M210.668 133.996C206.856 133.996 203.737 137.115 203.737 140.927V186.855C203.737 190.666 206.856 193.785 210.668 193.785C214.48 193.785 217.599 190.666 217.599 186.855V140.927C217.598 137.115 214.48 133.996 210.668 133.996Z" fill="#4A4A61"/>
<path d="M89.4132 133.996C85.6015 133.996 82.4824 137.115 82.4824 140.927V163.323C82.4824 159.512 85.6015 156.392 89.4132 156.392C93.2249 156.392 96.344 159.512 96.344 163.323V140.927C96.344 137.115 93.2256 133.996 89.4132 133.996Z" fill="#404057"/>
<path d="M210.668 133.996C206.856 133.996 203.737 137.115 203.737 140.927V163.323C203.737 159.512 206.856 156.392 210.668 156.392C214.48 156.392 217.599 159.512 217.599 163.323V140.927C217.598 137.115 214.48 133.996 210.668 133.996Z" fill="#404057"/>
<path d="M223.863 141.001H71.7054C66.7634 141.001 62.7573 136.775 62.7573 131.56C62.7573 126.345 66.7634 122.119 71.7054 122.119H223.863C228.805 122.119 232.811 126.346 232.811 131.56C232.811 136.774 228.805 141.001 223.863 141.001Z" fill="#A09D35"/>
<path d="M121.312 131.56C121.312 127.101 124.119 123.337 127.971 122.119H71.7054C66.7634 122.119 62.7573 126.345 62.7573 131.56C62.7573 136.774 66.7634 141.001 71.7054 141.001H127.971C124.119 139.783 121.312 136.019 121.312 131.56Z" fill="#858435"/>
<path d="M97.5493 296.172C111.626 282.096 123.886 292.924 123.886 292.924L123.852 292.516C112.747 274.123 110.128 257.817 109.837 247.586L109.837 247.587C109.837 247.587 95.0073 252.639 84.4157 263.98C83.9685 271.571 85.0709 276.793 85.8845 279.47C86.276 280.758 87.3091 281.723 88.5869 282.013L99.05 284.397C101.545 284.965 102.724 287.927 101.337 290.138L97.5493 296.172Z" fill="#A09D35"/>
</g>
<defs>
<clipPath id="clip0_992_23785">
<rect width="300" height="300" rx="40" fill="white"/>
</clipPath>
</defs>
</svg>
