<svg width="300" height="300" viewBox="0 0 300 300" fill="none" xmlns="http://www.w3.org/2000/svg">
<g clip-path="url(#clip0_992_23711)">
<rect width="300" height="300" rx="40" fill="#A76CC4"/>
<path d="M279.591 306.1C307.2 275.303 324 234.616 324 190C324 93.9024 246.098 16 150 16C53.9024 16 -24 93.9024 -24 190C-24 234.616 -7.20016 275.303 20.4094 306.1H279.591Z" fill="#1C2E7A"/>
<path d="M279.591 306.1C307.2 275.303 324 234.616 324 190C324 93.9024 246.098 16 150 16C53.9024 16 -24 93.9024 -24 190C-24 234.616 -7.20016 275.303 20.4094 306.1H279.591Z" fill="#8341A3"/>
<path d="M150 305.547C213.815 305.547 265.547 253.815 265.547 190C265.547 126.185 213.815 74.4531 150 74.4531C86.1852 74.4531 34.4531 126.185 34.4531 190C34.4531 253.815 86.1852 305.547 150 305.547Z" fill="#572C6C"/>
<path d="M259.429 263.406C244.476 250.203 179.699 239.536 179.699 239.536V163.363H120.301V239.536C120.301 239.536 55.5232 250.203 40.5701 263.406C34.4203 268.836 27.0076 286.814 20.4092 306.1C52.2661 341.635 98.5182 364 150 364C201.481 364 247.733 341.635 279.59 306.1C272.992 286.814 265.579 268.836 259.429 263.406Z" fill="#E9EFFF"/>
<path d="M221.109 340.211C155.791 340.211 98.89 304.213 69.1339 250.98C56.8194 254.598 45.7289 258.851 40.5701 263.406C34.4203 268.836 27.0076 286.814 20.4092 306.1C52.2661 341.635 98.5182 364 150 364C182.733 364 213.35 354.954 239.501 339.237C233.457 339.873 227.322 340.211 221.109 340.211Z" fill="#D3DCFB"/>
<path d="M120.301 163.365V239.538C152.2 239.538 170.086 215.056 170.086 215.056L179.699 163.366H120.301V163.365Z" fill="#D3DCFB"/>
<path d="M205.224 133.736C205.224 174.402 180.499 222.095 150 222.095C119.501 222.095 94.7759 174.402 94.7759 133.736C94.7759 93.0702 119.5 63.8301 150 63.8301C180.499 63.8301 205.224 93.0695 205.224 133.736Z" fill="white"/>
<path d="M113.766 133.737C113.766 97.3882 133.521 70.1722 159.495 64.8026C156.41 64.1651 153.238 63.832 150 63.832C119.5 63.832 94.7759 93.0715 94.7759 133.737C94.7759 174.403 119.501 222.096 150 222.096C153.238 222.096 156.41 221.554 159.495 220.543C133.521 212.043 113.766 170.086 113.766 133.737Z" fill="#E9EFFF"/>
<path d="M150.056 195.545C152.872 195.545 155.154 193.263 155.154 190.447C155.154 187.632 152.872 185.35 150.056 185.35C147.241 185.35 144.958 187.632 144.958 190.447C144.958 193.263 147.241 195.545 150.056 195.545Z" fill="#BEC8F7"/>
<path d="M150 175.022C147.184 175.022 144.902 172.74 144.902 169.924V147.263C144.902 144.448 147.184 142.165 150 142.165C154.586 142.165 158.855 140.33 162.019 136.998C165.18 133.668 166.79 129.301 166.551 124.702C166.104 116.083 158.985 109.194 150.344 109.02C150.232 109.018 150.118 109.017 150.005 109.017C141.754 109.017 134.728 115.09 133.586 123.273C133.48 124.033 133.426 124.813 133.426 125.591C133.426 128.406 131.145 130.689 128.329 130.689C125.513 130.689 123.231 128.406 123.231 125.591C123.231 124.343 123.318 123.088 123.489 121.863C125.361 108.457 137.021 98.5598 150.55 98.8276C164.508 99.109 176.009 110.242 176.733 124.174C177.117 131.594 174.517 138.642 169.412 144.019C165.498 148.14 160.536 150.843 155.097 151.881V169.924C155.097 172.74 152.816 175.022 150 175.022Z" fill="#BEC8F7"/>
</g>
<defs>
<clipPath id="clip0_992_23711">
<rect width="300" height="300" rx="40" fill="white"/>
</clipPath>
</defs>
</svg>
