<svg width="500" height="466" viewBox="0 0 500 466" fill="none" xmlns="http://www.w3.org/2000/svg">
<path d="M119.067 195.977L60.338 242.255L0 207.244V194.77L119.067 195.977Z" fill="#685750"/>
<path d="M232.502 142.858L60.3379 242.255V229.78L161.706 154.93L232.502 130.383V142.858Z" fill="#403531"/>
<path d="M232.502 130.383L60.338 229.781L0 194.77L171.762 95.373L232.502 130.383Z" fill="#836E69"/>
<path d="M172.567 103.02L12.4702 195.173L14.8837 196.38L174.578 104.227L172.567 103.02Z" fill="#685750"/>
<path d="M181.416 107.848L21.7217 200.404L23.7329 201.611L183.427 109.457L181.416 107.848Z" fill="#685750"/>
<path d="M190.266 113.08L30.5718 205.234L32.583 206.843L192.68 114.287L190.266 113.08Z" fill="#685750"/>
<path d="M199.116 118.311L39.4214 210.464L41.4327 211.672L201.529 119.518L199.116 118.311Z" fill="#685750"/>
<path d="M207.965 123.543L48.271 215.697L50.2823 216.904L210.379 124.75L207.965 123.543Z" fill="#685750"/>
<path d="M216.815 128.371L57.1201 220.927L59.5336 222.134L219.228 129.981L216.815 128.371Z" fill="#685750"/>
<path d="M182.623 126.763V122.739L177.796 119.922H170.957L166.13 122.739V126.763L170.957 129.58H177.796L182.623 126.763Z" fill="#E6E1DD"/>
<path d="M177.796 129.58H170.958V133.202H177.796V129.58Z" fill="#B5AFA7"/>
<path d="M170.958 133.202L166.13 130.385V126.764L170.958 129.581V133.202Z" fill="#D8D1C7"/>
<path d="M177.796 133.202L182.624 130.385V126.764L177.796 129.581V133.202Z" fill="#A39C95"/>
<path d="M175.383 126.359L174.579 126.762L173.372 126.359H172.567L173.372 126.762H174.579H175.383L176.188 126.359H175.383Z" fill="#787878"/>
<path d="M175.786 125.957H172.97H172.165L172.567 126.359L174.579 126.762L176.188 126.359L176.993 125.957H175.786Z" fill="#949494"/>
<path d="M176.992 123.541L175.785 124.748H172.97L171.763 123.541L170.556 123.139L170.958 124.346L172.165 125.956L174.579 126.358L176.992 125.956L177.797 124.346L178.199 123.139L176.992 123.541Z" fill="#ABABAB"/>
<path d="M177.797 121.932L176.992 122.334L175.383 123.139H173.372L171.763 122.334L170.958 121.932L170.556 123.139L171.763 124.749L174.579 125.553L176.992 124.749L178.199 123.139L177.797 121.932Z" fill="#BABABA"/>
<path d="M176.992 120.725L176.187 119.92V120.322V121.127L175.383 122.334H173.372L172.567 121.127V120.322V119.92L172.165 120.725L170.958 121.932L172.165 123.542L174.578 123.944L176.992 123.542L177.796 121.932L176.992 120.725Z" fill="#CCCCCC"/>
<path d="M176.187 119.92H175.383V120.725H174.578H174.176H173.372V119.92H172.567L171.763 121.127L172.567 121.932L174.578 122.737L176.187 121.932L176.992 121.127L176.187 119.92Z" fill="#DBDBDB"/>
<path d="M175.384 119.92H174.981V120.322H174.579H174.177H173.774V119.92H173.372L172.97 120.322L173.372 121.127H174.579H175.384L175.786 120.322L175.384 119.92Z" fill="#EBEBEB"/>
<path d="M174.981 120.322L175.384 119.92H174.981L174.579 119.518L173.774 119.92V120.322L174.579 120.725L174.981 120.322Z" fill="#FBFBFB"/>
<path d="M172.969 122.739L172.165 120.727L178.198 98.9961L180.612 101.008L181.819 105.435L172.969 122.739Z" fill="#D8D1C7"/>
<path d="M175.383 123.945L172.97 122.738L181.015 103.825L187.049 101.812L187.451 107.446L185.842 111.873L175.383 123.945Z" fill="#B5AFA7"/>
<path d="M177.796 123.947H175.383L187.45 107.447L190.668 106.24L193.484 107.447L177.796 123.947Z" fill="#A39C95"/>
<path d="M181.015 103.824L178.199 98.9945L209.172 43.8633H215.206L188.657 94.9704L181.015 103.824Z" fill="#D8D1C7"/>
<path d="M187.45 107.445L181.014 103.824L215.206 43.8633L221.239 47.0826L195.495 96.9824L187.45 107.445Z" fill="#B5AFA7"/>
<path d="M193.484 107.447H187.45L221.239 47.084L224.457 52.3154L193.484 107.447Z" fill="#A39C95"/>
<path d="M223.251 43.4615L217.217 40.2422H211.183L209.172 43.8639L211.988 48.693L218.424 52.3147H224.458L226.469 48.693L223.251 43.4615Z" fill="#E0DEDC"/>
<path d="M222.446 44.2661L217.619 41.4492H213.194L211.585 44.2661L213.597 48.2903L218.424 51.1072L223.251 50.7048L224.458 48.2903L222.446 44.2661Z" fill="#808285"/>
<path d="M65.5675 194.771V190.747L60.3382 187.93H53.4999L48.6729 190.747V194.771L53.4999 197.588H60.3382L65.5675 194.771Z" fill="#E6E1DD"/>
<path d="M60.3383 197.588H53.5V201.21H60.3383V197.588Z" fill="#B5AFA7"/>
<path d="M53.5008 201.21L48.6729 198.393V194.771L53.5008 197.588V201.21Z" fill="#D8D1C7"/>
<path d="M60.3384 201.21L65.5677 198.393V194.771L60.3384 197.588V201.21Z" fill="#A39C95"/>
<path d="M58.327 194.369H57.12H55.9131H55.1084H55.9131L57.12 194.772L58.327 194.369H58.7294H58.327Z" fill="#787878"/>
<path d="M58.7299 193.564H55.5112H54.7065L55.1089 194.369L57.1205 194.772L58.7299 194.369L59.5345 193.564H58.7299Z" fill="#949494"/>
<path d="M59.9356 191.148L58.7288 192.758H55.5108L54.304 191.148H53.4995V192.356L54.7063 193.563L57.1198 194.368L59.5333 193.563L60.7401 192.356V191.148H59.9356Z" fill="#ABABAB"/>
<path d="M60.7401 189.941H59.9356L58.3265 191.149H55.913L54.304 189.941H53.4995V191.149L54.304 192.356L57.1198 193.161L59.5333 192.356L60.7401 191.149V189.941Z" fill="#BABABA"/>
<path d="M59.5333 188.332L58.7288 187.93L59.1311 188.332L58.7288 189.137L57.9243 189.942H56.3153L55.1085 189.137V188.332V187.93L54.7063 188.332L53.4995 189.942L54.7063 191.149L57.1198 191.954L59.5333 191.149L60.7401 189.942L59.5333 188.332Z" fill="#CCCCCC"/>
<path d="M58.7299 187.93L57.9252 187.527L58.3275 187.93V188.332L57.5229 188.735H56.7182L55.9135 188.332V187.93V187.527L55.1089 187.93L54.7065 188.735L55.1089 189.942L57.1205 190.344L58.7299 189.942L59.5345 188.735L58.7299 187.93Z" fill="#DBDBDB"/>
<path d="M57.9247 187.527H57.5224L57.9247 187.93H57.5224H56.7177H56.3154V187.527H55.9131L55.5107 188.332L55.9131 188.735L57.1201 189.137L57.9247 188.735L58.3271 188.332L57.9247 187.527Z" fill="#EBEBEB"/>
<path d="M57.5224 188.332L57.9248 187.93L57.5224 187.527H57.1201H56.3154V187.93V188.332H57.1201H57.5224Z" fill="#FBFBFB"/>
<path d="M55.9138 190.344L54.707 188.332L60.7408 166.602L63.5566 168.614L64.3611 173.443L55.9138 190.344Z" fill="#D8D1C7"/>
<path d="M58.3271 191.953L55.9136 190.344L63.9586 171.832L69.5902 169.418L69.9924 175.454L68.3834 179.478L58.3271 191.953Z" fill="#B5AFA7"/>
<path d="M60.7412 191.552L58.3276 191.954L69.993 175.455L73.6132 174.248L76.0268 175.053L60.7412 191.552Z" fill="#A39C95"/>
<path d="M63.9583 171.831L60.7402 166.6L91.7137 111.469H97.7475L71.1988 162.576L63.9583 171.831Z" fill="#D8D1C7"/>
<path d="M69.9923 175.453L63.9585 171.831L97.7477 111.469L104.184 115.091L78.4396 164.588L69.9923 175.453Z" fill="#B5AFA7"/>
<path d="M76.026 175.052L69.9922 175.454L104.184 115.092L106.999 119.921L76.026 175.052Z" fill="#A39C95"/>
<path d="M105.793 111.469L99.7594 107.848H93.7256L91.7144 111.469L94.9324 116.701L100.966 120.323L107 119.92L109.011 116.701L105.793 111.469Z" fill="#E0DEDC"/>
<path d="M153.661 22.9387L150.845 20.9266L149.236 18.5121L150.04 16.5H153.258L156.476 18.5121L157.683 20.9266L156.879 22.5363L153.661 22.9387Z" fill="#D1D1D1"/>
<path d="M150.845 20.9262L149.236 18.5117L131.939 47.4858L131.537 49.4979L130.33 49.9003L93.7251 111.47L96.1386 115.897L118.665 78.8744L150.845 21.3286V20.9262Z" fill="#836E69"/>
<path d="M153.661 22.9379L150.845 20.9258L96.1387 115.896L101.368 118.713L123.492 81.6909L154.063 22.9379H153.661Z" fill="#685750"/>
<path d="M156.879 22.5371L153.661 22.9395L101.368 118.715L105.792 118.313L139.582 55.133L138.777 54.3281L140.788 52.7185L156.879 22.5371Z" fill="#544540"/>
<path d="M131.94 47.4863L133.549 50.7057V51.9129L132.342 53.1202L130.331 49.9008L131.94 47.4863Z" fill="#FBE979"/>
<path d="M137.571 52.7172L133.549 50.7051L132.342 53.1196L135.962 55.1317L137.571 53.1196V52.7172Z" fill="#E3BD5E"/>
<path d="M140.79 52.7188H137.571L135.962 55.1333H139.583L140.79 52.7188Z" fill="#CC934C"/>
<path d="M149.236 18.5112L150.041 16.4991L162.511 0L163.717 0.804836L152.857 19.3161L149.236 18.5112Z" fill="#D1D1D1"/>
<path d="M156.879 22.5353L157.684 20.9256L165.729 1.60952L164.522 0.804688L154.063 20.1208L156.879 22.5353Z" fill="#808080"/>
<path d="M163.315 1.20711L162.108 0.804688L149.236 18.5111L150.845 20.9256L154.063 17.3038L163.315 1.20711Z" fill="#E6E1DD"/>
<path d="M164.522 1.20703L162.913 1.60945L150.845 20.9255L153.661 22.9376L162.511 8.04814L164.522 1.20703Z" fill="#D1D1D1"/>
<path d="M165.326 2.41428L164.521 1.20703L164.119 2.41428L153.661 22.9376L156.879 22.5352L165.326 2.41428Z" fill="#ADADAD"/>
<path d="M164.12 2.41451L162.913 1.60967L162.108 0.804836L162.511 0H163.718L164.925 0.804836L165.729 1.60967L165.327 2.41451H164.12Z" fill="#F4EFE9"/>
<path opacity="0.3" d="M499.999 341.251L284.392 466L3.2168 303.423L218.824 178.674L499.999 341.251Z" fill="black"/>
<path d="M499.999 339.641L284.392 463.988L3.2168 301.814L218.824 177.064L499.999 339.641Z" fill="#EFF1F5"/>
<path d="M210.779 200.002L156.475 231.391L187.449 249.499L241.753 218.111L210.779 200.002Z" fill="#B5AFA7"/>
<path d="M267.095 232.598L99.3552 329.581L91.7124 325.155L259.452 228.172L267.095 232.598Z" fill="#B5AFA7"/>
<path d="M283.99 242.257L116.25 339.239L108.607 334.813L276.347 237.83L283.99 242.257Z" fill="#B5AFA7"/>
<path d="M300.884 251.915L133.144 348.898L125.501 344.471L293.241 247.891L300.884 251.915Z" fill="#B5AFA7"/>
<path d="M317.779 261.975L149.637 358.958L142.396 354.532L310.136 257.549L317.779 261.975Z" fill="#B5AFA7"/>
<path d="M393 305.436L327.03 343.666L324.617 342.056L390.586 303.826L393 305.436Z" fill="#B5AFA7"/>
<path d="M334.271 317.508L335.88 321.13L343.12 323.947L344.327 324.349L343.925 323.544L341.109 317.91H340.707L335.478 317.105L334.673 314.691L339.5 315.093H339.902L343.925 314.288L344.327 317.91V318.313H344.729L352.774 320.325L354.786 320.727L353.981 319.52L350.361 312.276L349.959 311.874H349.154L345.132 312.679L345.936 311.472H353.981C353.981 312.276 353.579 313.081 353.579 313.886V314.288L354.383 314.691L362.831 316.703L365.647 317.105L364.44 315.496L360.819 310.667L360.417 310.264H359.613H356.395C356.797 309.057 356.797 307.447 357.199 306.24L369.669 308.655C371.278 312.276 372.485 315.496 374.094 319.118H374.496L399.034 324.751L400.643 325.154L400.24 324.349C399.034 320.727 398.229 316.703 397.022 313.081V312.679H396.218L369.669 307.85C369.267 307.045 368.865 306.643 368.462 305.838C369.669 302.618 370.876 299.399 372.485 296.18C370.876 299.399 369.267 302.618 368.06 305.838C368.462 306.24 368.462 307.045 368.865 307.447L356.395 305.033L354.786 304.63V305.435C354.383 307.045 354.383 309.057 353.981 310.667H344.729H343.523V311.472L343.925 314.691L339.5 315.496L334.271 313.886L331.455 306.24L321.399 300.606L320.192 299.801V301.009L320.996 309.459H321.399L331.455 314.691H331.857L333.466 315.093L334.271 317.508L331.857 316.703L325.019 325.556L331.857 317.105L334.271 317.508ZM395.011 313.081C395.815 316.301 397.022 319.52 398.229 323.142L375.301 318.313C373.692 315.093 372.083 311.874 370.474 308.655L395.011 313.081ZM358.808 311.472L361.222 314.691L355.992 313.484C355.992 312.679 355.992 312.276 356.395 311.472H358.808ZM346.338 314.288L349.556 313.886L351.97 319.118L346.741 317.91L346.338 314.288ZM322.203 308.655L321.399 301.814L329.846 306.643L332.662 313.886H331.857L322.203 308.655ZM335.478 317.91L339.902 318.715L342.316 323.544L336.684 321.13L335.478 317.91Z" fill="#836E69"/>
<path d="M300.884 363.385L277.151 367.007L259.854 377.067L253.418 390.749L259.854 404.431L277.151 414.492L300.884 418.114L324.617 414.492L341.914 404.431L348.35 390.749L341.914 377.067L324.617 367.007L300.884 363.385ZM335.88 379.079L341.109 390.749L335.88 402.419L320.997 410.87L300.884 414.089L280.771 410.87L265.888 402.419L260.659 390.749L265.888 379.079L280.771 370.628L300.884 367.409L320.997 370.628L335.88 379.079Z" fill="#6CB5C4"/>
<path d="M290.827 380.688L283.185 384.712L280.771 390.748L283.185 396.382L290.827 400.809L300.884 402.418L310.94 400.809L318.181 396.382L320.996 390.748L318.181 384.712L310.94 380.688L300.884 379.078L290.827 380.688Z" fill="#6CB5C4"/>
<path d="M284.794 374.653L273.531 381.494L269.106 390.75L273.531 400.005L285.196 406.846L300.884 409.261L316.572 406.846L328.237 400.005L332.662 390.75L328.237 381.494L316.572 374.653L300.884 372.238L284.794 374.653ZM326.226 381.896L330.248 390.347L326.226 398.798L315.365 404.834L300.482 407.249L285.598 404.834L274.738 398.798L270.715 390.347L274.738 381.896L285.598 375.458L300.482 373.043L315.365 375.458L326.226 381.896Z" fill="#6CB5C4"/>
<path d="M265.486 311.472L166.532 368.615L159.291 364.188L257.843 307.045L265.486 311.472Z" fill="#B5AFA7"/>
<path opacity="0.3" d="M179.404 423.343L137.57 399.198L179.404 375.053L221.238 399.198L179.404 423.343Z" fill="black"/>
<path d="M222.042 341.25H215.606V357.749L218.824 364.188L222.042 362.176V341.25Z" fill="#231F20"/>
<path d="M218.825 343.262L176.186 318.715V339.641L218.825 364.188V343.262Z" fill="#414042"/>
<path d="M173.773 317.105V375.054L213.194 397.991L214.401 386.724V338.434L173.773 317.105Z" fill="#857F79"/>
<path d="M178.601 373.847L179.003 418.113L213.597 397.992V354.129L178.601 373.847ZM209.976 390.347L207.161 395.175L183.428 408.858L180.612 407.248V377.067L183.428 372.238L207.161 358.555L209.976 360.165V390.347Z" fill="#D8D1C7"/>
<path d="M142.8 341.25V399.198L179.405 420.526L180.612 409.259V360.968L142.8 341.25Z" fill="#D8D1C7"/>
<path d="M163.316 404.431V406.04L158.891 403.626V357.348L160.5 358.152L161.305 400.809L163.316 404.431Z" fill="#A39C95"/>
<path d="M163.316 359.762V404.43L160.5 402.821V358.152L163.316 359.762Z" fill="#E6E1DD"/>
<path d="M179.404 362.578V420.526L216.009 399.601V341.652L179.404 362.578ZM212.389 391.955L209.573 396.784L185.84 410.466L183.025 408.856V378.675L185.84 373.846L209.573 360.164L212.389 361.773V391.955Z" fill="#A39C95"/>
<path d="M136.765 293.764L145.212 279.277L152.051 283.704L146.017 296.984L136.765 293.764Z" fill="#6D6E71"/>
<path d="M213.596 279.277L222.043 293.764L216.009 296.581L207.16 286.118L213.596 279.277Z" fill="#6D6E71"/>
<path d="M191.471 300.605H168.141V319.922H191.471V300.605Z" fill="#6D6E71"/>
<path d="M222.043 293.765L213.595 288.936L203.941 290.948L187.851 303.825L179.404 318.312L174.979 346.884L179.404 365.797L222.043 341.25V293.765Z" fill="#231F20"/>
<path d="M182.219 364.188H176.186V380.687L179.404 386.723L182.219 385.113V364.188Z" fill="#231F20"/>
<path d="M179.404 318.312L170.957 303.825L145.212 288.936L136.765 293.765V362.176L179.404 386.723V318.312Z" fill="#414042"/>
<path d="M154.465 354.529L155.672 353.725L160.499 356.542L159.292 359.358L154.465 354.529Z" fill="#808285"/>
<path d="M159.292 357.346L160.499 356.541L164.12 362.577L162.913 369.016L159.292 357.346Z" fill="#6D6E71"/>
<path d="M162.912 363.383L164.119 362.578V368.212L162.912 369.017V363.383Z" fill="#231F20"/>
<path d="M159.292 371.028L162.912 369.016V363.383L159.292 357.346L154.465 354.529L150.845 356.541V362.175L154.465 368.212L159.292 371.028Z" fill="#58595B"/>
<path d="M152.856 356.943L154.465 356.139L158.488 358.553L156.879 360.968L152.856 356.943Z" fill="#FA5C52"/>
<path d="M156.879 359.358L158.488 358.553L161.305 363.382L159.695 369.016L156.879 359.358Z" fill="#AB281F"/>
<path d="M159.695 364.188L161.304 363.383V367.809L159.695 369.017V364.188Z" fill="#8A1C14"/>
<path d="M156.879 370.626L159.695 369.016V364.187L156.879 359.358L152.856 356.943L150.041 358.553V363.382L152.856 368.211L156.879 370.626Z" fill="#C84030"/>
<path d="M213.595 288.936V279.278L187.851 264.389H170.957L145.212 279.278V288.936L170.957 303.826H187.851L213.595 288.936Z" fill="#58595B"/>
<path d="M376.911 284.51L375.704 283.303L373.692 290.949L376.911 284.51Z" fill="#836E69"/>
<path d="M378.52 284.912L377.313 284.51L373.692 290.948L378.52 284.912Z" fill="#403531"/>
<path d="M377.716 285.315L377.313 284.51H376.106L373.692 290.948L377.716 285.315Z" fill="#685750"/>
<path d="M375.704 284.107L374.497 282.498L379.726 262.779L382.14 264.389L382.944 268.816L375.704 284.107Z" fill="#D8D1C7"/>
<path d="M378.117 285.314L375.704 284.107L382.542 267.205L387.771 265.193L388.173 270.425L386.564 274.047L378.117 285.314Z" fill="#B5AFA7"/>
<path d="M380.129 285.315H378.118L388.174 270.426L390.99 269.219L393.403 270.024L380.129 285.315Z" fill="#A39C95"/>
<path d="M382.542 267.206L379.727 262.78L397.023 229.781L402.253 229.379L388.978 259.158L382.542 267.206Z" fill="#D8D1C7"/>
<path d="M388.174 270.426L382.542 267.206L402.253 229.379L407.884 232.598L395.415 260.365L388.174 270.426Z" fill="#B5AFA7"/>
<path d="M393.403 270.023L388.174 270.425L407.884 232.598L410.7 237.024L393.403 270.023Z" fill="#A39C95"/>
<path d="M461.786 127.97L458.166 125.958L456.155 123.141L457.362 121.129H460.58L464.2 122.739L465.809 125.556L465.004 127.97H461.786Z" fill="#D1D1D1"/>
<path d="M458.166 125.958L456.155 123.141L437.651 156.541L437.249 158.553L436.042 159.358L397.023 229.781L399.839 234.208L423.974 191.954L458.166 126.36V125.958Z" fill="#836E69"/>
<path d="M461.786 127.969L458.166 125.957L399.839 234.207L405.471 237.024L429.606 195.173L461.786 128.372V127.969Z" fill="#685750"/>
<path d="M465.004 127.971H461.786L405.471 237.026H410.7L446.5 164.591L445.696 163.786L448.11 161.774L465.004 127.971Z" fill="#544540"/>
<path d="M437.652 156.541L439.663 159.76L440.066 161.37L438.456 162.577L436.042 159.358L437.652 156.541Z" fill="#FBE979"/>
<path d="M444.087 162.174L439.662 159.76L438.456 162.577L442.478 164.991L444.087 162.577V162.174Z" fill="#E3BD5E"/>
<path d="M448.11 161.773L444.088 162.176L442.479 164.993L446.501 164.59L448.11 161.773Z" fill="#CC934C"/>
<path d="M456.154 123.141L457.361 121.128L470.635 102.215L472.244 102.617L460.579 124.348L456.154 123.141Z" fill="#D1D1D1"/>
<path d="M465.004 127.969L465.808 125.555L474.256 103.824L472.647 103.02L461.786 124.75L465.004 127.969Z" fill="#808080"/>
<path d="M471.842 103.422L470.233 103.02L456.154 123.14L458.166 125.957L461.786 121.933L471.842 103.422Z" fill="#E6E1DD"/>
<path d="M472.647 103.422L471.038 103.824L458.166 125.957L461.786 127.969L470.635 111.068L472.647 103.422Z" fill="#D1D1D1"/>
<path d="M473.853 104.629L472.647 103.422L472.244 104.629L461.786 127.969H465.004L473.853 104.629Z" fill="#ADADAD"/>
<path d="M472.245 104.629L471.038 103.825L470.233 103.02L470.636 102.215H472.245L473.452 102.617L474.257 103.825L473.854 104.629H472.245Z" fill="#F4EFE9"/>
</svg>
