<svg width="64" height="64" viewBox="0 0 64 64" fill="none" xmlns="http://www.w3.org/2000/svg">
<path d="M0 32C0 14.3269 14.3269 0 32 0C49.6731 0 64 14.3269 64 32C64 49.6731 49.6731 64 32 64C14.3269 64 0 49.6731 0 32Z" fill="#6CB5C4"/>
<path fill-rule="evenodd" clip-rule="evenodd" d="M52.2121 18.0189C51.668 16.6176 50.9426 15.4306 49.7556 14.2436C48.5686 13.0565 47.3816 12.3311 45.9803 11.7871C44.6284 11.2595 43.0622 10.8968 40.8035 10.7979L40.7652 10.7962C38.5201 10.6986 37.7703 10.666 31.9998 10.666C26.1966 10.666 25.4712 10.6825 23.1961 10.7979C20.921 10.8968 19.3713 11.2595 18.0194 11.7871C16.6181 12.3311 15.4311 13.0565 14.244 14.2436C13.057 15.4306 12.3316 16.6176 11.7876 18.0189C11.26 19.3708 10.8973 20.937 10.7984 23.1956L10.7967 23.234C10.6991 25.4791 10.6665 26.2289 10.6665 31.9993C10.6665 37.8025 10.683 38.5279 10.7984 40.8031C10.8973 43.0782 11.26 44.6279 11.7876 45.9798C12.3316 47.3811 13.057 48.5681 14.244 49.7551C15.4311 50.9422 16.6181 51.6676 18.0194 52.2116C19.3713 52.7392 20.9375 53.1019 23.1961 53.2008L23.2344 53.2025C25.4796 53.3001 26.2293 53.3327 31.9998 53.3327C37.803 53.3327 38.5284 53.3162 40.8035 53.2008C43.0787 53.1019 44.6284 52.7392 45.9803 52.2116C47.3816 51.6676 48.5686 50.9422 49.7556 49.7551C50.9426 48.5681 51.668 47.3811 52.2121 45.9798C52.7397 44.6279 53.1024 43.0617 53.2013 40.8031L53.2029 40.7648C53.3006 38.5196 53.3332 37.7699 53.3332 31.9993C53.3332 26.1962 53.3167 25.4708 53.2013 23.1956C53.1024 20.9205 52.7397 19.3708 52.2121 18.0189ZM47.8793 39.8788C47.7889 41.7771 47.4725 42.8167 47.2013 43.4946C46.8548 44.3986 46.4179 45.0615 45.7399 45.7395C45.062 46.4174 44.4142 46.8393 43.4951 47.2009C42.8021 47.472 41.7776 47.7884 39.8793 47.8788L39.7811 47.8831C37.7948 47.9702 37.1291 47.9993 31.9998 47.9993C26.787 47.9993 26.1693 47.9843 24.1204 47.8788C22.2221 47.7884 21.1825 47.472 20.5045 47.2009C19.6006 46.8543 18.9377 46.4174 18.2597 45.7395C17.5818 45.0615 17.1599 44.4137 16.7983 43.4946C16.5271 42.8016 16.2108 41.7771 16.1204 39.8788L16.1168 39.7973C16.0292 37.7976 15.9998 37.128 15.9998 31.9993C15.9998 26.8016 16.0149 26.1688 16.1204 24.1199C16.2108 22.2216 16.5271 21.182 16.7983 20.5041C17.1448 19.6001 17.5818 18.9372 18.2597 18.2592C18.9377 17.5813 19.5855 17.1594 20.5045 16.7978C21.1976 16.5267 22.2221 16.2103 24.1204 16.1199L24.2019 16.1163H24.2019C26.2016 16.0287 26.8712 15.9993 31.9998 15.9993C37.1976 15.9993 37.8303 16.0144 39.8793 16.1199C41.7776 16.2103 42.8172 16.5267 43.4951 16.7978C44.3991 17.1444 45.062 17.5813 45.7399 18.2592C46.4179 18.9372 46.8398 19.585 47.2013 20.5041C47.4725 21.1971 47.7889 22.2216 47.8793 24.1199L47.8829 24.2014C47.9705 26.2011 47.9998 26.8707 47.9998 31.9993C47.9998 37.1475 47.9703 37.8174 47.8819 39.8205L47.8793 39.8788ZM42.6665 23.9993C44.1393 23.9993 45.3332 22.8054 45.3332 21.3327C45.3332 19.8599 44.1393 18.666 42.6665 18.666C41.1937 18.666 39.9998 19.8599 39.9998 21.3327C39.9998 22.8054 41.1937 23.9993 42.6665 23.9993ZM31.9998 21.3327C26.1131 21.3327 21.3332 26.1126 21.3332 31.9994C21.3332 37.8861 26.1131 42.666 31.9998 42.666C37.8866 42.666 42.6665 37.8861 42.6665 31.9994C42.6665 26.1126 37.8866 21.3327 31.9998 21.3327ZM26.6665 31.9993C26.6665 34.95 29.0616 37.3327 31.9998 37.3327C34.9381 37.3327 37.3332 34.9376 37.3332 31.9993C37.3332 29.0487 34.9505 26.666 31.9998 26.666C29.0492 26.666 26.6665 29.0611 26.6665 31.9993Z" fill="white"/>
</svg>
