<svg width="300" height="300" viewBox="0 0 300 300" fill="none" xmlns="http://www.w3.org/2000/svg">
<g clip-path="url(#clip0_992_23674)">
<rect width="300" height="300" rx="40" fill="#7B6CC4"/>
<path d="M125.748 169.533C141.914 169.533 158.08 169.533 174.246 169.533L174.511 172.848L150.81 208.778L125.35 172.493L125.747 169.535L125.748 169.533Z" fill="#B3B3B3"/>
<path d="M126.06 160.522L125.64 180.789L91.2549 199.592V268.516H149.14H207.017V199.592L175.061 179.729L173.306 159.465L126.061 160.521H126.06V160.522Z" fill="#F0BA7D"/>
<path d="M110.171 101.417C110.171 101.417 108.2 97.0846 102.906 99.2318C97.6114 101.376 103.144 122.784 105.167 125.77C107.189 128.755 110.444 126.86 111.629 126.742C113.315 139.503 113.465 148.299 118.574 153.68C123.412 158.775 134.49 169.159 140.326 172.78C144.278 173.615 147.227 174.105 150 174.252C152.773 174.105 155.724 173.614 159.675 172.78C165.51 169.161 176.59 158.775 181.427 153.68C186.534 148.299 186.686 139.505 188.372 126.742C189.557 126.86 192.812 128.755 194.833 125.77C196.856 122.784 202.389 101.376 197.095 99.2318C191.8 97.084 189.83 101.417 189.83 101.417C189.83 101.417 195.062 84.6062 185.761 68.0592C179.387 56.7179 164.849 50.8359 150.001 50.4043C135.153 50.8359 120.615 56.7179 114.241 68.0592C104.94 84.6069 110.173 101.417 110.173 101.417H110.171Z" fill="#FED298"/>
<path d="M108.778 186.751L117.012 183.507L123.648 177.545L147.078 195.315H152.913L176.351 177.523L191.219 186.753L217.054 230.668L196.594 341.676C181.762 345.79 166.137 347.998 149.996 347.998C136.831 347.998 124.011 346.526 111.683 343.756L75.0103 234.176L108.776 186.752L108.778 186.751Z" fill="#15BDB2"/>
<path d="M183.705 181.198L174.245 169.533L152.916 195.315L171.224 215.658L183.705 181.198Z" fill="#21D0C3"/>
<path d="M116.277 180.993L125.748 169.533L147.079 195.315L128.044 215.449L116.277 180.993Z" fill="#21D0C3"/>
<path d="M116.278 180.994L53.5808 201.383C51.0313 202.21 49.43 204.378 48.9107 207.01L30.4741 300.439C42.89 312.18 57.0364 322.106 72.4877 329.808L81.6533 299.896C81.76 299.552 82.0863 299.338 82.4431 299.381C82.7986 299.423 83.0691 299.708 83.0888 300.067L84.4122 335.199C104.654 343.447 126.794 347.998 150.002 347.998V336.334L116.279 180.995L116.278 180.994Z" fill="white"/>
<path d="M116.278 180.994L109.097 183.2L90.0728 215.662L114.09 216.414L99.3451 224.809L150.002 336.335L116.28 180.995L116.278 180.994Z" fill="#EEF3F7"/>
<path d="M183.705 181.199L246.421 201.383C248.975 202.204 250.571 204.378 251.09 207.01L269.527 300.44C257.11 312.181 242.963 322.107 227.511 329.81L218.344 299.897C218.239 299.553 217.909 299.339 217.554 299.382C217.199 299.424 216.931 299.71 216.91 300.069L215.59 335.2C195.348 343.448 173.208 348 150.002 348H150V336.335L183.704 181.201L183.705 181.199Z" fill="#EEF3F7"/>
<path d="M183.705 181.199L187.691 182.412L209.912 215.866L185.896 216.62L200.641 225.015L150 336.335L183.704 181.201V181.2H183.705V181.199Z" fill="white"/>
<path d="M185.261 106.422L188.95 106.293L190.137 102.083L193.613 98.6152C195.908 81.3321 196.584 54.4334 179.43 55.2096C179.43 55.2096 177.883 35.5965 146.94 39.4408C115.995 43.2865 102.014 63.2625 103.68 79.9285C105.344 96.5945 104.673 98.6131 104.673 98.6131L108.149 102.082L108.673 106.871L111.708 106.68C111.708 106.68 112.659 100.27 113.611 97.4502C114.564 94.6315 114.266 88.9249 114.266 88.9249C114.266 88.9249 150.815 91.2535 160.693 78.6894C166.793 70.9308 180.803 57.4872 181.508 76.1052C181.717 81.6264 179.665 89.9016 183.593 95.9243C187.522 101.948 185.259 106.421 185.259 106.421H185.261V106.422Z" fill="#666666"/>
<path d="M150.001 336.333L159.881 290.859L153.167 201.222L156.825 199.66L152.914 195.316H147.079L143.069 199.559L146.833 201.222L140.287 291.585L150.001 336.334L150.001 336.333Z" fill="#0F7986"/>
<path d="M211.441 278.038C204.651 276.865 200.097 270.41 201.268 263.622C202.441 256.833 208.896 252.276 215.684 253.447C222.474 254.62 227.028 261.077 225.857 267.867C224.685 274.655 218.229 279.211 211.44 278.038L211.441 278.038Z" fill="#FEFEFE"/>
<path d="M211.564 277.32C205.169 276.216 200.88 270.139 201.985 263.743C203.089 257.348 209.168 253.058 215.564 254.161C221.958 255.266 226.247 261.346 225.143 267.74C224.038 274.137 217.96 278.423 211.564 277.319V277.32Z" fill="#0F7986"/>
<path d="M212.457 272.151C208.92 271.541 206.546 268.174 207.156 264.637C207.766 261.098 211.132 258.726 214.669 259.336C218.207 259.947 220.581 263.309 219.97 266.848C219.36 270.385 215.995 272.759 212.457 272.149V272.151Z" fill="#EBECEC"/>
<path d="M213.222 260.034L216.078 260.527L217.614 251.63L214.758 251.137L213.222 260.034Z" fill="#FEFEFE"/>
<path d="M117.539 280.505L122.892 279.442C125.167 278.99 127.05 277.651 128.252 275.854C129.451 274.057 129.973 271.805 129.52 269.53L123.224 237.811C120.847 225.841 111.484 219.738 100.784 218.384C96.6843 217.866 92.386 218.055 88.2215 218.879C84.0536 219.704 80.0136 221.169 76.4241 223.213C67.0757 228.538 60.7757 237.743 63.1552 249.732L69.4512 281.452C69.9039 283.727 71.2449 285.609 73.0406 286.811L73.0454 286.81C74.8425 288.012 77.0916 288.53 79.3665 288.079L84.717 287.017L84.2793 284.81L78.9274 285.873C77.2595 286.204 75.6071 285.822 74.2906 284.944L74.292 284.942C72.9747 284.06 71.9905 282.68 71.6588 281.013L65.3629 249.293C63.2035 238.414 68.9761 230.03 77.53 225.161C80.9108 223.234 84.7231 221.852 88.6585 221.071C92.5939 220.292 96.6463 220.116 100.508 220.604C110.302 221.841 118.866 227.388 121.02 238.245L127.317 269.965C127.647 271.632 127.265 273.283 126.385 274.602C125.503 275.918 124.123 276.902 122.454 277.232L117.101 278.294L117.539 280.501V280.504V280.505Z" fill="#21D0C3"/>
<path d="M124.923 242.512L123.961 237.667C121.512 225.327 111.878 219.037 100.878 217.644C96.6985 217.117 92.3213 217.306 88.0787 218.148C83.8361 218.987 79.7178 220.482 76.0604 222.564C66.4455 228.039 59.9695 237.518 62.4231 249.88L63.3863 254.725L67.0607 253.994L66.0989 249.149C64.0143 238.642 69.6115 230.53 77.899 225.811C81.2118 223.926 84.9473 222.573 88.8059 221.807C92.6632 221.041 96.636 220.869 100.42 221.347C109.909 222.546 118.205 227.906 120.288 238.395L121.25 243.24L124.926 242.51L124.923 242.512Z" fill="#4D4D4D"/>
<path d="M80.471 288.348L83.3352 287.779C84.0543 288.586 85.1669 289 86.3007 288.775C88.0046 288.437 89.1118 286.782 88.7734 285.077C88.4362 283.375 86.7805 282.267 85.0765 282.606C83.9401 282.83 83.0715 283.64 82.7167 284.659L79.8545 285.227L80.473 288.346L80.471 288.348Z" fill="#076673"/>
<path d="M119.814 280.539L116.953 281.108C116.598 282.127 115.729 282.935 114.595 283.162C112.891 283.499 111.236 282.393 110.898 280.687C110.561 278.985 111.667 277.329 113.369 276.992C114.504 276.768 115.618 277.184 116.333 277.988L119.196 277.42L119.814 280.539Z" fill="#076673"/>
<path d="M89.8195 217.862L88.7272 212.359L86.5556 212.791L84.3867 213.221L85.4912 218.778C86.3184 218.537 87.1558 218.332 88.0013 218.164C88.6042 218.044 89.2091 217.945 89.8195 217.862Z" fill="#666666"/>
<path d="M85.1351 285.286C85.6503 285.184 85.9854 284.681 85.8828 284.168C85.7809 283.652 85.282 283.317 84.7647 283.419C84.2488 283.521 83.9144 284.022 84.017 284.537C84.1197 285.051 84.6192 285.388 85.1351 285.284V285.286Z" fill="#0F7986"/>
<path d="M113.446 279.656C113.961 279.554 114.294 279.053 114.192 278.539C114.09 278.022 113.592 277.688 113.074 277.79C112.558 277.892 112.224 278.393 112.327 278.909C112.427 279.424 112.929 279.759 113.446 279.656Z" fill="#0F7986"/>
<path d="M212.11 272.092C208.763 271.515 206.52 268.333 207.096 264.985C207.673 261.64 210.853 259.395 214.2 259.974C217.546 260.551 219.791 263.732 219.213 267.077C218.635 270.423 215.453 272.668 212.108 272.092H212.11Z" fill="#FEFEFE"/>
<path d="M116.309 182.643C116.213 182.644 82.4195 182.924 88.1275 212.489L84.9846 213.09C78.55 179.76 116.165 179.453 116.271 179.451L116.309 182.643Z" fill="#4D4D4D"/>
<path d="M183.742 179.602C189.256 179.75 199.913 181.253 208.117 191.232C216.145 200.997 221.773 218.93 217.565 251.811L214.397 251.411C218.47 219.586 213.207 202.451 205.653 193.261C198.272 184.281 188.648 182.928 183.669 182.794L183.744 179.602H183.742Z" fill="#4D4D4D"/>
</g>
<defs>
<clipPath id="clip0_992_23674">
<rect width="300" height="300" rx="40" fill="white"/>
</clipPath>
</defs>
</svg>
