<svg width="300" height="300" viewBox="0 0 300 300" fill="none" xmlns="http://www.w3.org/2000/svg">
<rect width="300" height="300" rx="40" fill="#6CC4A7"/>
<path d="M116.667 230.159L54.5513 216.917V84.8789L116.667 98.1212V230.159Z" fill="#ECD833"/>
<path d="M183.333 219.433L116.667 233.089V96.9203L183.333 83.2637V219.433Z" fill="#ECC32E"/>
<path d="M245.42 230.158L183.333 217.997V83.2637L245.42 95.4248V230.158Z" fill="#ECD833"/>
<path d="M57.3057 89.0254L122.772 102.85L83.3337 157.983L57.6943 129.274L57.3057 89.0254Z" fill="#05CDFF"/>
<path d="M245.419 229.549L187.23 191.551V139.763L242.995 131.213L245.419 229.549Z" fill="#05CDFF"/>
<path d="M118.338 193.048L118.088 193.095L90.1877 162.241L112.959 125.855L118.338 137.632V93.6731L116.667 94.0302L75.4293 85.2109V95.1464L114.635 103.531L116.667 103.966L117.616 103.763L84.769 156.249L63.3638 132.578V144.166L112.781 198.815V225.428L73.8891 217.11V227.046L116.667 236.195L118.338 235.837V193.048Z" fill="white"/>
<path d="M183.333 79.7715L181.194 80.2289V90.1643L183.435 89.6851L240.284 100.628V127.61L183.654 136.385L181.194 135.586V189.102L182.426 188.87L226.59 220.368L185.17 212.395L183.232 212.022L181.302 212.434L181.195 212.457V222.393L183.334 221.935L250 234.768V92.6034L183.333 79.7715ZM240.284 220.587L187.22 182.742V143.697L240.284 135.475V220.587Z" fill="white"/>
<path d="M183.329 212.04L183.231 212.021L181.301 212.434L120.553 225.426V200.538L182.425 188.869L183.329 189.514V136.278L119.43 115.514L128.202 101.497L183.329 89.7069V79.7715L116.666 94.0285L116.59 94.0122V103.948L116.666 103.964L117.616 103.761L116.59 105.401V133.804L141.638 188.652L118.088 193.093L116.59 191.437V236.176L116.666 236.193L183.329 221.936V212.04ZM120.703 124.101L179.447 143.19V181.521L149.505 187.168L120.703 124.101Z" fill="#D0FBFD"/>
<path d="M59.7159 140.132L64.6344 145.571C67.0202 148.209 71.4032 146.521 71.4032 142.964C71.4032 142.001 71.0457 141.072 70.3994 140.358L59.7159 128.543V91.7849L77.8561 95.6647C80.8797 96.3114 83.7299 94.006 83.7299 90.9144C83.7299 88.623 82.1288 86.6433 79.8879 86.1641L50 79.7715V221.936L77.8557 227.893C80.8793 228.54 83.7295 226.234 83.7295 223.142C83.7295 220.851 82.1284 218.871 79.8875 218.392L59.7159 214.078V140.132Z" fill="#D0FBFD"/>
<path d="M132.169 63C128.459 63 124.882 63.5713 121.521 64.6288V149.339C127.881 158.671 132.967 165.309 132.967 165.309C132.967 165.309 167.606 118.009 167.606 98.4376C167.606 78.866 151.74 63 132.169 63Z" fill="#F5415F"/>
<path d="M147.27 107.561C148.089 99.0343 141.552 91.3467 132.998 90.8916C132.895 90.8862 132.793 90.8819 132.69 90.8784C125.254 90.6289 121.283 81.9884 125.968 76.2071C126.867 75.0968 127.838 74.0315 128.877 73.0219C132.781 69.2265 129.089 62.6893 123.8 63.9885C108.671 67.7057 96.731 81.2873 96.731 98.4385C96.731 118.01 132.966 165.31 132.966 165.31C132.966 165.31 132.969 165.306 132.975 165.298C139.318 156.619 139.75 144.967 134.107 135.816C133.842 135.387 133.578 134.956 133.314 134.524C130.09 129.233 132.423 122.423 138.119 119.983C142.957 117.911 146.71 113.391 147.27 107.561Z" fill="#CD2846"/>
<path d="M132.168 113.611C140.549 113.611 147.342 106.818 147.342 98.4375C147.342 90.0572 140.549 83.2637 132.168 83.2637C123.788 83.2637 116.995 90.0572 116.995 98.4375C116.995 106.818 123.788 113.611 132.168 113.611Z" fill="white"/>
<path d="M118.166 92.5827C117.279 94.7004 116.859 97.0617 117.034 99.5392C117.577 107.245 123.992 113.379 131.713 113.605C136.749 113.753 141.252 111.445 144.115 107.791C145.742 105.715 143.796 102.79 141.216 103.338C133.635 104.947 125.694 100.326 123.476 92.8291C122.729 90.3018 119.184 90.1522 118.166 92.5827Z" fill="#D0FBFD"/>
</svg>
