<svg width="568" height="307" viewBox="0 0 568 307" fill="none" xmlns="http://www.w3.org/2000/svg">
<path d="M457.737 271.084C453.821 257.308 436.2 258.784 436.2 258.784L436.689 268.132C446.968 266.164 453.331 278.464 453.331 278.464L457.737 271.084Z" fill="#6CB5C4"/>
<path d="M86.7169 299.621C82.8011 285.845 65.1802 287.321 65.1802 287.321L65.6696 296.669C75.9485 294.701 82.3117 307.001 82.3117 307.001L86.7169 299.621Z" fill="#E0E0E0"/>
<path d="M291.316 112.666C311.384 119.062 324.111 95.4464 324.111 95.4464L311.874 88.5586C306 102.826 285.442 101.35 285.442 101.35L291.316 112.666Z" fill="#E0E0E0"/>
<path d="M178.248 137.756C168.948 138.74 167.48 150.547 167.48 150.547L173.843 151.531C173.843 144.644 182.654 141.692 182.654 141.692L178.248 137.756Z" fill="#6CB5C4"/>
<path d="M567.868 224.838C569.336 215.491 558.078 211.555 558.078 211.555L555.631 217.459C562.483 219.426 562.973 228.282 562.973 228.282L567.868 224.838Z" fill="#E0E0E0"/>
<path d="M233.559 13.2836C235.027 3.9359 223.769 0 223.769 0L221.322 5.90384C228.174 7.87179 228.664 16.7276 228.664 16.7276L233.559 13.2836Z" fill="#6CB5C4"/>
<path d="M0.0805715 165.8C-1.38784 180.56 17.7016 184.004 17.7016 184.004L21.1279 174.164C9.38054 173.18 7.91212 159.404 7.91212 159.404L0.0805715 165.8Z" fill="#6CB5C4"/>
<path d="M434.732 112.173C444.031 112.664 447.458 101.349 447.458 101.349L441.584 99.3809C440.605 106.269 431.305 107.745 431.305 107.745L434.732 112.173Z" fill="#6CB5C4"/>
<path d="M486.615 151.041C486.615 151.533 483.189 152.025 478.784 152.025C474.378 152.025 470.952 151.533 470.952 151.041C470.952 150.549 474.378 150.057 478.784 150.057C482.699 150.057 486.615 150.549 486.615 151.041Z" fill="#E0E0E0"/>
<path d="M494.936 129.885C495.425 129.885 495.915 133.329 495.915 137.757C495.915 142.184 495.425 145.628 494.936 145.628C494.446 145.628 493.957 142.184 493.957 137.757C493.957 133.329 494.446 129.885 494.936 129.885Z" fill="#E0E0E0"/>
<path d="M503.747 150.548C503.747 150.056 507.173 149.564 511.578 149.564C515.983 149.564 519.41 150.056 519.41 150.548C519.41 151.04 515.983 151.532 511.578 151.532C507.173 151.532 503.747 151.04 503.747 150.548Z" fill="#E0E0E0"/>
<path d="M495.426 172.195C494.936 172.195 494.447 168.751 494.447 164.323C494.447 159.895 494.936 156.451 495.426 156.451C495.915 156.451 496.405 159.895 496.405 164.323C495.915 168.259 495.915 172.195 495.426 172.195Z" fill="#E0E0E0"/>
<path d="M508.152 162.848C507.663 163.34 506.194 161.864 504.726 159.896C503.257 157.929 502.278 156.453 502.768 155.961C503.257 155.469 504.726 156.945 506.194 158.913C507.173 160.88 508.152 162.356 508.152 162.848Z" fill="#E0E0E0"/>
<path d="M507.173 138.741C507.663 139.233 506.194 140.709 504.726 142.185C503.257 143.66 501.789 144.644 501.3 144.644C500.81 144.152 502.279 142.677 503.747 141.201C505.215 139.233 506.684 138.249 507.173 138.741Z" fill="#E0E0E0"/>
<path d="M489.063 144.645C488.573 145.137 487.105 144.153 485.636 143.169C484.168 141.693 483.189 140.709 483.189 140.217C483.678 139.725 485.147 140.709 486.615 141.693C488.573 143.169 489.552 144.153 489.063 144.645Z" fill="#E0E0E0"/>
<path d="M488.573 155.467C489.062 155.959 488.084 157.435 486.615 158.911C485.147 160.387 483.678 161.371 483.189 161.371C482.699 160.879 483.678 159.403 485.147 157.927C486.615 155.959 488.084 154.975 488.573 155.467Z" fill="#E0E0E0"/>
<path d="M60.2857 107.253C60.2857 107.745 56.8594 108.237 52.4541 108.237C48.0489 108.237 44.6226 107.745 44.6226 107.253C44.6226 106.762 48.0489 106.27 52.4541 106.27C56.3699 106.27 60.2857 106.762 60.2857 107.253Z" fill="#6CB5C4"/>
<path d="M68.1171 85.6055C68.6066 85.6055 69.0961 89.0494 69.0961 93.4773C69.0961 97.9051 68.6066 101.349 68.1171 101.349C67.6277 101.349 67.1382 97.9051 67.1382 93.4773C67.6277 89.5414 68.1171 85.6055 68.1171 85.6055Z" fill="#6CB5C4"/>
<path d="M77.417 106.761C77.417 106.269 80.8433 105.777 85.2485 105.777C89.6538 105.777 93.0801 106.269 93.0801 106.761C93.0801 107.253 89.6538 107.745 85.2485 107.745C80.8433 107.253 77.417 107.253 77.417 106.761Z" fill="#6CB5C4"/>
<path d="M69.0961 127.917C68.6067 127.917 68.1172 124.474 68.1172 120.046C68.1172 115.618 68.6067 112.174 69.0961 112.174C69.5856 112.174 70.0751 115.618 70.0751 120.046C69.5856 124.474 69.0961 127.917 69.0961 127.917Z" fill="#6CB5C4"/>
<path d="M81.3328 119.061C80.8433 119.553 79.3749 118.077 77.9065 116.109C76.4381 114.141 75.4591 112.665 75.9486 112.173C76.4381 111.681 77.9065 113.157 79.3749 115.125C80.8433 117.093 81.8223 118.569 81.3328 119.061Z" fill="#6CB5C4"/>
<path d="M80.8432 94.4609C81.3327 94.9529 79.8643 96.4289 78.3958 97.9049C76.9274 99.3808 75.459 100.365 74.9695 100.365C74.4801 99.8728 75.9485 98.3968 77.4169 96.9209C78.8853 95.4449 80.3537 94.4609 80.8432 94.4609Z" fill="#6CB5C4"/>
<path d="M62.733 100.858C62.2436 101.35 60.7752 100.366 59.3067 99.3816C57.8383 97.9057 56.8594 96.9217 56.8594 96.4297C57.3488 95.9377 58.8173 96.9217 60.2857 97.9057C62.2436 99.3816 63.2225 100.366 62.733 100.858Z" fill="#6CB5C4"/>
<path d="M62.2434 111.68C62.7329 112.172 61.754 113.648 60.2856 115.124C58.8171 116.6 57.3487 117.584 56.8593 117.584C56.3698 117.092 57.3487 115.616 58.8171 114.14C60.2856 112.172 61.754 111.188 62.2434 111.68Z" fill="#6CB5C4"/>
<path d="M284.242 283.143C355.067 283.143 412.483 225.432 412.483 154.242C412.483 83.0525 355.067 25.3418 284.242 25.3418C213.416 25.3418 156 83.0525 156 154.242C156 225.432 213.416 283.143 284.242 283.143Z" fill="#6CB5C4"/>
<path d="M347.383 99.6309C348.852 101.107 324.868 133.086 294.031 171.953C287.178 179.825 280.815 187.697 274.942 195.076L272.494 198.028L269.558 195.076C245.084 169.985 228.442 151.29 229.91 149.814C230.889 148.83 249.489 165.557 274.942 189.665L269.558 190.157C275.431 182.777 281.794 174.905 288.157 167.033C318.994 128.658 345.915 98.647 347.383 99.6309Z" fill="white"/>
</svg>
