<svg width="64" height="64" viewBox="0 0 64 64" fill="none" xmlns="http://www.w3.org/2000/svg">
<path d="M0 32C0 14.3269 14.3269 0 32 0C49.6731 0 64 14.3269 64 32C64 49.6731 49.6731 64 32 64C14.3269 64 0 49.6731 0 32Z" fill="#6CB5C4"/>
<path fill-rule="evenodd" clip-rule="evenodd" d="M14.4852 31.6619C23.8139 27.5975 30.0344 24.9181 33.1469 23.6235C42.0336 19.9272 43.8802 19.2851 45.0838 19.2639C45.3485 19.2592 45.9404 19.3248 46.3238 19.6359C46.6475 19.8986 46.7366 20.2535 46.7792 20.5025C46.8219 20.7516 46.8749 21.319 46.8327 21.7623C46.3512 26.8222 44.2674 39.1014 43.2073 44.7686C42.7587 47.1666 41.8755 47.9707 41.0204 48.0493C39.1621 48.2203 37.751 46.8213 35.9511 45.6414C33.1347 43.7952 31.5436 42.646 28.8098 40.8444C25.6504 38.7624 27.6985 37.6181 29.499 35.748C29.9702 35.2586 38.158 27.8113 38.3164 27.1357C38.3362 27.0512 38.3546 26.7362 38.1675 26.5699C37.9804 26.4036 37.7043 26.4605 37.505 26.5057C37.2225 26.5698 32.7232 29.5437 24.0072 35.4272C22.7301 36.3042 21.5733 36.7315 20.5369 36.7091C19.3944 36.6844 17.1965 36.0631 15.5627 35.532C13.5587 34.8805 11.9659 34.5361 12.1046 33.4298C12.1768 32.8536 12.9704 32.2643 14.4852 31.6619Z" fill="white"/>
</svg>
